<?xml version="1.0" encoding="utf-8"?>
<!-- Generator: Adobe Illustrator 21.1.0, SVG Export Plug-In . SVG Version: 6.00 Build 0)  -->
<svg version="1.1" id="Calque_1" xmlns="http://www.w3.org/2000/svg" xmlns:xlink="http://www.w3.org/1999/xlink" x="0px" y="0px"
	 viewBox="0 0 93 71.5" style="enable-background:new 0 0 93 71.5;" xml:space="preserve">
<style type="text/css">
	.st0{fill:#FFFFFF;}
</style>
<g>
	<path class="st0" d="M85.3,14.2H7.7c-3.6,0-6.5-2.9-6.5-6.5s2.9-6.5,6.5-6.5h77.7c3.6,0,6.5,2.9,6.5,6.5S88.9,14.2,85.3,14.2z"/>
</g>
<g>
	<path class="st0" d="M85.3,42.2H7.7c-3.6,0-6.5-2.9-6.5-6.5s2.9-6.5,6.5-6.5h77.7c3.6,0,6.5,2.9,6.5,6.5S88.9,42.2,85.3,42.2z"/>
</g>
<g>
	<path class="st0" d="M85.3,70.3H7.7c-3.6,0-6.5-2.9-6.5-6.5c0-3.6,2.9-6.5,6.5-6.5h77.7c3.6,0,6.5,2.9,6.5,6.5
		C91.9,67.4,88.9,70.3,85.3,70.3z"/>
</g>
</svg>
