<?xml version="1.0" encoding="utf-8"?>
<!-- Generator: Adobe Illustrator 21.1.0, SVG Export Plug-In . SVG Version: 6.00 Build 0)  -->
<svg version="1.1" id="Calque_1" xmlns="http://www.w3.org/2000/svg" xmlns:xlink="http://www.w3.org/1999/xlink" x="0px" y="0px"
	 viewBox="0 0 30 26" style="enable-background:new 0 0 30 26;" xml:space="preserve">
<style type="text/css">
	.st0{fill:#FFFFFF;}
</style>
<g>
	<path class="st0" d="M15.1,7.2c3.1,0,5.5,2.3,5.5,5.2c0,0.6-0.1,1.4-0.4,1.9l3.2,3c1.6-1.4,3-3,3.7-4.9C25.2,7.8,20.5,4.5,15,4.5
		c-1.5,0-3,0.3-4.4,0.7L13,7.5C13.6,7.3,14.4,7.2,15.1,7.2L15.1,7.2z M4,4.4l3,2.8c-1.9,1.4-3.3,3.2-4.1,5.2
		C4.8,17,9.5,20.3,15,20.3c1.7,0,3.3-0.3,4.8-0.8l3.6,3.5l1.4-1.4L5.3,3L4,4.4z M10.1,10.2l1.7,1.6v0.7c0,1.8,1.4,3.2,3.3,3.2
		c0.2,0,0.4,0,0.8-0.1l1.7,1.6c-0.8,0.4-1.5,0.6-2.4,0.6c-3.1,0-5.5-2.3-5.5-5.2C9.5,11.6,9.8,10.9,10.1,10.2L10.1,10.2z M14.8,9.3
		l3.4,3.3v-0.2c0-1.8-1.4-3.1-3.3-3.1C14.9,9.3,14.9,9.3,14.8,9.3L14.8,9.3z"/>
</g>
</svg>
