<svg id="Calque_3" data-name="Calque 3" xmlns="http://www.w3.org/2000/svg" viewBox="0 0 390 136"><defs><style>.cls-1{fill:#2a319b;}.cls-2{fill:#52cc7a;}.cls-2,.cls-3{opacity:0.71;isolation:isolate;}.cls-3{fill:none;stroke:#52cc7a;stroke-miterlimit:10;stroke-width:3px;}</style></defs><title>logo-length</title><path class="cls-1" d="M130.78,28.9h27.53q9.63,0,15.58,5.37a18,18,0,0,1,5.93,14.08A17.86,17.86,0,0,1,169,64.7Q163.91,67.06,163,67v.24Q181,70.31,181,86.8q0,9.31-5.63,14.79t-15.14,5.49H130.53v-2h6V31h-5.72ZM152.17,31V66h4.73Q163,66,163,60V38.63q0-4-1.18-5.86a4.47,4.47,0,0,0-4.05-1.8Zm0,37.14V105h5.35q6,0,6-7.5V76q0-7.82-6.08-7.82Z"/><path class="cls-1" d="M187.17,28.9h26.61V31h-5.6v74h5.72v2.1H187.29V105h5.23V31h-5.35Z"/><path class="cls-1" d="M216,28.9H238.5L260,93.11h.25V36.28q0-5.28-5.35-5.28h-2.3V28.9h17V31h-2.3q-4.22,0-4.22,3.25V107.1H249.14L225.91,39h-.25V98q0,7,4.85,7h2.8v2.1H217.39V105q3.11,0,4.29-1.11t1.18-4.17V31H216Z"/><path class="cls-1" d="M320.78,75V97.63a24.26,24.26,0,0,1-9.94,7.89A27.19,27.19,0,0,1,300.45,108q-11.94,0-18.23-9.91t-6.44-28.69q0-20.91,6.62-31.12t16-10.21a13.5,13.5,0,0,1,11.31,5.22,14.88,14.88,0,0,0,3.86-4.32h2.42V49.08h-2.18q-3.36-13-7.09-16t-6.5-2.93q-6.78,0-6.78,12.17V98.14a9,9,0,0,0,1.65,5.73,5.39,5.39,0,0,0,4.45,2.07,5.13,5.13,0,0,0,4.19-2,7.73,7.73,0,0,0,1.59-5.09V75h-5.9v-2.1h27.34V75Z"/><path class="cls-1" d="M356.59,28Q367.46,28,374,38.6t6.53,28.47q0,20.53-6.94,30.72T356.38,108a19.78,19.78,0,0,1-12.47-4.51A28.57,28.57,0,0,1,335,90.79q-3.11-8.16-3.11-23.7,0-17.46,6.81-28.26T356.21,28Zm-6.78,11.34V97.07q0,4.68,1.62,6.84t5.16,2.16q6.22,0,6.22-9V37.73q0-7.74-6.59-7.74Q349.81,30,349.81,39.34Z"/><path class="cls-2" d="M68.95,87.35c-2.68,4.85-5.26,9.49-7.82,14.14-4.53,8.22-9.08,16.43-13.55,24.68A2.84,2.84,0,0,1,44.65,128c-6.7-.09-13.41,0-20.11,0h-2c1.47-2.68,2.77-5,4.1-7.4Q41.4,93.87,56.25,67.24a3.07,3.07,0,0,0,.06-3.44Q41.69,37.39,27.23,10.91c-.46-.84-.88-1.71-1.49-2.91h4.91c5.42,0,10.85.06,16.27,0a3.19,3.19,0,0,1,3.33,1.87c5.95,10.88,12,21.69,18,32.53.23.41.52.8.89,1.39C72.83,37.29,76.4,30.95,80,24.6c2.85-5.08,5.64-10.18,8.54-15.23a2.73,2.73,0,0,1,1.84-1.28C97.39,8,104.45,8,111.49,8a3.74,3.74,0,0,1,.78.23c-1.73,3.2-3.41,6.33-5.11,9.43q-12.66,23-25.38,46A3.23,3.23,0,0,0,82,67.3q16.35,29.38,32.63,58.8c.27.49.51,1,.87,1.67-.64.07-1.17.17-1.69.17-6.78,0-13.56-.07-20.33.06a3.12,3.12,0,0,1-3.21-2Q79.94,107.08,69.53,88.22A3.21,3.21,0,0,0,68.95,87.35Z"/><path class="cls-1" d="M53.93,87.35c-2.68,4.85-5.26,9.49-7.82,14.14-4.53,8.22-9.08,16.43-13.55,24.68A2.84,2.84,0,0,1,29.63,128c-6.7-.09-13.41,0-20.11,0h-2c1.47-2.68,2.77-5,4.1-7.4Q26.38,93.87,41.24,67.24a3.07,3.07,0,0,0,.06-3.44Q26.68,37.39,12.21,10.91c-.46-.84-.88-1.71-1.49-2.91h4.91c5.42,0,10.85.06,16.27,0a3.19,3.19,0,0,1,3.33,1.87c5.95,10.88,12,21.69,18,32.53.23.41.52.8.89,1.39,3.65-6.5,7.22-12.84,10.77-19.18,2.85-5.08,5.64-10.18,8.54-15.23a2.73,2.73,0,0,1,1.84-1.28C82.37,8,89.43,8,96.47,8a3.74,3.74,0,0,1,.78.23c-1.73,3.2-3.41,6.33-5.11,9.43q-12.66,23-25.38,46A3.23,3.23,0,0,0,67,67.3q16.35,29.38,32.63,58.8c.27.49.51,1,.87,1.67-.64.07-1.17.17-1.69.17-6.78,0-13.56-.07-20.33.06a3.12,3.12,0,0,1-3.21-2Q64.92,107.08,54.51,88.22A3.21,3.21,0,0,0,53.93,87.35Z"/><line class="cls-3" x1="130.53" y1="125.67" x2="380.53" y2="125.67"/><line class="cls-3" x1="130.53" y1="10" x2="380.53" y2="10"/></svg>