<?xml version="1.0" encoding="utf-8"?>
<!-- Generator: Adobe Illustrator 21.1.0, SVG Export Plug-In . SVG Version: 6.00 Build 0)  -->
<svg version="1.1" id="Calque_1" xmlns:sketch="http://www.bohemiancoding.com/sketch/ns"
	 xmlns="http://www.w3.org/2000/svg" xmlns:xlink="http://www.w3.org/1999/xlink" x="0px" y="0px" viewBox="0 0 100 100"
	 style="enable-background:new 0 0 100 100;" xml:space="preserve">
<style type="text/css">
	.st0{fill:#FFFFFF;}
</style>
<title>7</title>
<desc>Created with Sketch.</desc>
<g sketch:type="MSPage">
	<g sketch:type="MSArtboardGroup">
		<path sketch:type="MSShapeGroup" class="st0" d="M12,57c-3.8,0-7-3.1-7-7v0c0-3.8,3.1-7,7-7h28c1.7,0,3-1.3,3-3V12
			c0-3.8,3.1-7,7-7h0c3.8,0,7,3.1,7,7v28c0,1.7,1.3,3,3,3h28c3.8,0,7,3.1,7,7v0c0,3.8-3.1,7-7,7H60c-1.7,0-3,1.3-3,3v28
			c0,3.8-3.1,7-7,7h0c-3.8,0-7-3.1-7-7V60c0-1.7-1.3-3-3-3H12z"/>
	</g>
</g>
</svg>
