<svg id="Calque_1" data-name="Calque 1" xmlns="http://www.w3.org/2000/svg" viewBox="0 0 100 100"><defs><style>.cls-1{fill:#52cc7a;}</style></defs><title>search</title><path class="cls-1" d="M96.1,84.7,75.8,64.4A42.26,42.26,0,0,1,64.5,75.8L84.7,96a4.53,4.53,0,0,0,6.6,0L96,91.4A4.57,4.57,0,0,0,96.1,84.7Z"/><path class="cls-1" d="M38.3,2.5A35.8,35.8,0,1,0,74.1,38.3,35.76,35.76,0,0,0,38.3,2.5Zm16,39.7a3.9,3.9,0,0,1-3.9-3.9,12.2,12.2,0,0,0-3.6-8.6,11.86,11.86,0,0,0-11.3-3.2,3.8,3.8,0,0,1-4.6-2.9A3.76,3.76,0,0,1,33.8,19,19.82,19.82,0,0,1,58.1,38.3,3.88,3.88,0,0,1,54.3,42.2Z"/></svg>